HIERARCHY
ROOT Hips
{
	OFFSET	0.00	0.00	0.00
	CHANNELS 6 Xposition Yposition Zposition Zrotation Xrotation Yrotation
	JOINT LeftUpLeg
	{
		OFFSET	 0.126116	-0.014019	-0.065224
		CHANNELS 3 Zrotation Xrotation Yrotation
		JOINT LeftLeg
		{
			OFFSET	 0.000000	 0.000000	 0.569914
			CHANNELS 3 Zrotation Xrotation Yrotation
			JOINT LeftFoot
			{
				OFFSET	 0.000000	 0.000000	 0.544423
				CHANNELS 3 Zrotation Xrotation Yrotation
				JOINT LeftToeBase
				{
					OFFSET	 0.000000	 0.000000	 0.207117
					CHANNELS 3 Zrotation Xrotation Yrotation
					End Site
					{
						OFFSET	 0.000000	 0.000000	 0.207117
					}
				}
			}
		}
	}
	JOINT RightUpLeg
	{
		OFFSET	-0.124023	-0.008373	-0.065224
		CHANNELS 3 Zrotation Xrotation Yrotation
		JOINT RightLeg
		{
			OFFSET	 0.000000	 0.000000	 0.570047
			CHANNELS 3 Zrotation Xrotation Yrotation
			JOINT RightFoot
			{
				OFFSET	 0.000000	 0.000000	 0.544354
				CHANNELS 3 Zrotation Xrotation Yrotation
				JOINT RightToeBase
				{
					OFFSET	 0.000000	 0.000000	 0.207540
					CHANNELS 3 Zrotation Xrotation Yrotation
					End Site
					{
						OFFSET	 0.000000	 0.000000	 0.207540
					}
				}
			}
		}
	}
	JOINT Spine
	{
		OFFSET	 0.000184	-0.007763	 0.117403
		CHANNELS 3 Zrotation Xrotation Yrotation
		JOINT Spine1
		{
			OFFSET	 0.000000	 0.000000	 0.137269
			CHANNELS 3 Zrotation Xrotation Yrotation
			JOINT Spine2
			{
				OFFSET	 0.000000	 0.000000	 0.156879
				CHANNELS 3 Zrotation Xrotation Yrotation
				JOINT LeftShoulder
				{
					OFFSET	 0.080501	-0.002496	 0.160144
					CHANNELS 3 Zrotation Xrotation Yrotation
					JOINT LeftArm
					{
						OFFSET	 0.000000	 0.000000	 0.164363
						CHANNELS 3 Zrotation Xrotation Yrotation
						JOINT LeftForeArm
						{
							OFFSET	 0.000000	 0.000000	 0.364576
							CHANNELS 3 Zrotation Xrotation Yrotation
							JOINT LeftHand
							{
								OFFSET	 0.000000	 0.000000	 0.360812
								CHANNELS 3 Zrotation Xrotation Yrotation
								JOINT LeftHandIndex1
								{
									OFFSET	 0.000000	 0.000000	 0.086006
									CHANNELS 3 Zrotation Xrotation Yrotation
									JOINT LeftHandIndex2
									{
										OFFSET	 0.000000	 0.000000	 0.047236
										CHANNELS 3 Zrotation Xrotation Yrotation
										JOINT LeftHandIndex3
										{
											OFFSET	-0.004284	-0.000551	 0.038166
											CHANNELS 3 Zrotation Xrotation Yrotation
											End Site
											{
												OFFSET	-0.004284	-0.000551	 0.038166
											}
										}
									}
								}
							}
						}
					}
				}
				JOINT Neck
				{
					OFFSET	 0.000000	 0.000000	 0.176489
					CHANNELS 3 Zrotation Xrotation Yrotation
					JOINT Head
					{
						OFFSET	 0.000000	-0.001747	 0.077940
						CHANNELS 3 Zrotation Xrotation Yrotation
						End Site
						{
							OFFSET	 0.000000	-0.001747	 0.077940
						}
					}
				}
				JOINT RightShoulder
				{
					OFFSET	-0.080363	 0.000306	 0.159706
					CHANNELS 3 Zrotation Xrotation Yrotation
					JOINT RightArm
					{
						OFFSET	 0.000000	 0.000000	 0.164196
						CHANNELS 3 Zrotation Xrotation Yrotation
						JOINT RightForeArm
						{
							OFFSET	 0.000000	 0.000000	 0.365611
							CHANNELS 3 Zrotation Xrotation Yrotation
							JOINT RightHand
							{
								OFFSET	 0.000000	 0.000000	 0.360648
								CHANNELS 3 Zrotation Xrotation Yrotation
								JOINT RightHandIndex1
								{
									OFFSET	 0.000000	 0.000000	 0.069977
									CHANNELS 3 Zrotation Xrotation Yrotation
									JOINT RightHandIndex2
									{
										OFFSET	 0.000000	 0.000000	 0.052305
										CHANNELS 3 Zrotation Xrotation Yrotation
										JOINT RightHandIndex3
										{
											OFFSET	 0.009002	-0.000782	 0.042196
											CHANNELS 3 Zrotation Xrotation Yrotation
											End Site
											{
												OFFSET	 0.009002	-0.000782	 0.042196
											}
										}
									}
								}
							}
						}
					}
				}
			}
		}
	}
}
MOTION
Frames:    9
Frame Time: 0.03333334
-0.038026	 0.299242	 0.970087	 3.992880	 33.602120	-8.778352	 74.572620	-87.652900	-105.642400	 10.107710	-77.862880	 10.294100	-4.051080	 84.653600	 6.152629	-2.385832	 28.452790	-0.000001	 102.912200	-77.197190	-81.001790	-26.265450	-80.931870	-20.878100	 55.244020	 81.175230	-44.259620	 2.384659	 28.388700	-0.000001	 1.330354	 15.811310	-0.053403	-1.548109	 22.810340	-0.039756	-7.520764	-0.885680	 4.931298	-99.145900	 68.199660	 156.845100	 8.481518	-4.737096	-33.079790	-3.843786	 12.547970	-40.330940	-23.489380	-18.673510	-17.904210	-2.027600	 6.559038	 9.033609	-5.188889	 0.308190	 3.541030	-5.234859	 0.342567	 0.430617	 0.327385	 17.445530	-5.939616	-6.811055	-26.515380	-3.997210	 97.429760	 64.646380	-159.209900	-3.111562	 2.316669	 47.545980	-6.750934	 0.494832	 28.783940	 7.750160	-17.500040	 13.613830	 1.803333	 3.979147	-15.098590	 4.898592	 3.004813	-9.310344	 5.224449	 0.395017	 2.014677
-0.037710	 0.298654	 0.975527	 3.859856	 33.082040	-8.488697	 50.420020	-87.328120	-129.782100	 9.202507	-77.181390	 9.383635	-4.549684	 84.513850	 6.728091	-2.385832	 28.452790	-0.000001	 98.167780	-77.591780	-85.754760	-25.020030	-80.243690	-19.608390	 54.344360	 81.112820	-43.258140	 2.384659	 28.388700	-0.000001	 1.558773	 15.836460	-0.179034	-1.349543	 23.176940	-0.335478	-7.729882	-1.484827	 4.802767	-98.994870	 68.252580	 157.229400	 8.344381	-3.882828	-33.400410	-3.653184	 12.526020	-40.676440	-23.810850	-18.841760	-18.167960	-2.027600	 6.559038	 9.033609	-5.188889	 0.308190	 3.541030	-5.234859	 0.342567	 0.430617	 0.006833	 15.509700	-5.147450	-7.194217	-24.566710	-4.293709	 97.325340	 64.551530	-159.564000	-3.396132	 2.276746	 47.680340	-6.465722	 0.659104	 29.062250	 7.869344	-17.646190	 14.264750	 1.803333	 3.979147	-15.098590	 4.898592	 3.004813	-9.310344	 5.224449	 0.395017	 2.014677
-0.037404	 0.298009	 0.981720	 3.765754	 32.519210	-8.212836	 31.858780	-86.585850	-148.253500	 8.512442	-76.366330	 8.681274	-5.128866	 84.265060	 7.280750	-2.385832	 28.452790	-0.000001	 92.561460	-77.931170	-91.312150	-23.796930	-79.457060	-18.357070	 52.981380	 81.021970	-41.824720	 2.384659	 28.388700	-0.000001	 1.767905	 15.880700	-0.280676	-1.104079	 23.538150	-0.661782	-7.937342	-2.118700	 4.643376	-98.723050	 68.529900	 157.654700	 8.292428	-2.763863	-33.953970	-3.437352	 12.464320	-40.992080	-24.178150	-19.087380	-18.569900	-2.027600	 6.559038	 9.033609	-5.188889	 0.308190	 3.541030	-5.234859	 0.342567	 0.430617	-0.280521	 13.136980	-4.566223	-7.429560	-22.199600	-4.332442	 97.186220	 64.325820	-160.129400	-3.758090	 2.040808	 47.930760	-6.224097	 0.805661	 29.434940	 7.759310	-17.617080	 14.936020	 1.803333	 3.979147	-15.098590	 4.898592	 3.004813	-9.310344	 5.224449	 0.395017	 2.014677
-0.036891	 0.297384	 0.988353	 3.661641	 31.935470	-7.932426	 20.479390	-85.559090	-159.536700	 7.872257	-75.485820	 8.027774	-5.619653	 83.995900	 7.745232	-2.385832	 28.452790	-0.000001	 86.326820	-78.137960	-97.491830	-22.641720	-78.599370	-17.170720	 51.559540	 80.920110	-40.324070	 2.384659	 28.388700	-0.000001	 1.945238	 15.900520	-0.371766	-0.858972	 23.804680	-0.952613	-8.108479	-2.703464	 4.468193	-98.458300	 68.803320	 158.073000	 8.363882	-1.556527	-34.445710	-3.233979	 12.403510	-41.309960	-24.523980	-19.333240	-18.967100	-2.027600	 6.559038	 9.033609	-5.188889	 0.308190	 3.541030	-5.234859	 0.342567	 0.430617	-0.536522	 10.807630	-4.014213	-7.599164	-19.881550	-4.329473	 97.046750	 64.104210	-160.683100	-4.188640	 1.853174	 48.051980	-5.992442	 0.955318	 29.926680	 7.665007	-17.571960	 15.588600	 1.803333	 3.979147	-15.098590	 4.898592	 3.004813	-9.310344	 5.224449	 0.395017	 2.014677
-0.036214	 0.296938	 0.995120	 3.504059	 31.296570	-7.597085	 13.310200	-84.369740	-166.652800	 7.320465	-74.598590	 7.462351	-6.003477	 83.748210	 8.078043	-2.385832	 28.452790	-0.000001	 79.555820	-78.211050	-104.239200	-21.695260	-77.696640	-16.189010	 50.357280	 80.814930	-39.050010	 2.384659	 28.388700	-0.000001	 2.046157	 15.923240	-0.448257	-0.662334	 24.046300	-1.180086	-8.231244	-3.357229	 4.248296	-98.045340	 69.374400	 158.511700	 8.675457	-0.034748	-35.053590	-3.011772	 12.294910	-41.524060	-24.929450	-19.603610	-19.590990	-2.027600	 6.559038	 9.033609	-5.188889	 0.308190	 3.541030	-5.234859	 0.342567	 0.430617	-0.741764	 8.078472	-3.425650	-7.745227	-17.201870	-4.356824	 96.880190	 64.172890	-161.049900	-4.695082	 2.203947	 48.018220	-6.026908	 0.955584	 30.455470	 7.504994	-17.472150	 16.029180	 1.803333	 3.979147	-15.098590	 4.898592	 3.004813	-9.310344	 5.224449	 0.395017	 2.014677
-0.035328	 0.296574	 1.002474	 3.331234	 30.635840	-7.251897	 8.643023	-83.044270	-171.268300	 6.795449	-73.613280	 6.921939	-6.308535	 83.463430	 8.324558	-2.385833	 28.452760	 0.000004	 72.383870	-78.089010	-111.384300	-20.777630	-76.692040	-15.231350	 49.039620	 80.688640	-37.655160	 2.384659	 28.388700	-0.000001	 2.105057	 15.920840	-0.510730	-0.483835	 24.226780	-1.367623	-8.321030	-3.989624	 4.010999	-97.613720	 69.989580	 158.945900	 9.140613	 1.610826	-35.623860	-2.801538	 12.180550	-41.724910	-25.321190	-19.875850	-20.243030	-2.027600	 6.559038	 9.033609	-5.188889	 0.308190	 3.541030	-5.234859	 0.342567	 0.430617	-0.910190	 5.324209	-2.850442	-7.843512	-14.506860	-4.366661	 96.713170	 64.290280	-161.381700	-5.265814	 2.668473	 47.861130	-6.107162	 0.929411	 31.033810	 7.337142	-17.363130	 16.426340	 1.803333	 3.979147	-15.098590	 4.898592	 3.004813	-9.310344	 5.224449	 0.395017	 2.014677
-0.034063	 0.296258	 1.011754	 3.121666	 29.799610	-6.825919	 4.972771	-81.328600	-174.880500	 6.324215	-72.344380	 6.425966	-6.523686	 83.106310	 8.430721	-2.385833	 28.452760	 0.000004	 63.678730	-77.668230	-120.049200	-19.840070	-75.387180	-14.238120	 47.471760	 80.522410	-35.966870	 2.384659	 28.388700	-0.000001	 2.125955	 15.920310	-0.576336	-0.286372	 24.363160	-1.578927	-8.372543	-4.575956	 3.753420	-96.956180	 71.017050	 159.435100	 9.762507	 3.780276	-36.508480	-2.547007	 12.030490	-41.946950	-25.821030	-20.225080	-20.990170	-2.027600	 6.559038	 9.033609	-5.188889	 0.308190	 3.541030	-5.234859	 0.342567	 0.430617	-1.071351	 2.026850	-2.390379	-7.848926	-11.202480	-4.176238	 96.404560	 64.737240	-161.814000	-5.870810	 3.572888	 47.812280	-6.258379	 0.863234	 31.778210	 7.227310	-17.418530	 16.862380	 1.803333	 3.979147	-15.098590	 4.898592	 3.004813	-9.310344	 5.224449	 0.395017	 2.014677
-0.029276	 0.294302	 1.041812	 2.577674	 27.055620	-5.414864	-0.859991	-75.642860	 179.461700	 5.751687	-68.257760	 5.732453	-6.372156	 82.025870	 7.736018	-2.385833	 28.452750	 0.000004	 40.763440	-74.600600	-142.830100	-16.671950	-71.010750	-10.913920	 42.918210	 79.990830	-31.247760	 2.384659	 28.388700	-0.000001	 1.966648	 15.782400	-0.788246	 0.242004	 24.473570	-2.191117	-8.185749	-6.036713	 3.105015	-94.134550	 75.405690	 160.656400	 12.416470	 10.958140	-40.240070	-1.717418	 11.497280	-42.606360	-27.149550	-21.352020	-23.110390	-2.027600	 6.559038	 9.033609	-5.188889	 0.308190	 3.541030	-5.234859	 0.342567	 0.430617	-1.478802	-8.411712	-2.351031	-7.447657	-0.754934	-2.613969	 94.959990	 67.540700	-163.283900	-7.814225	 7.897125	 48.166550	-6.907343	 0.519172	 34.898760	 7.222188	-18.477080	 17.793290	 1.803333	 3.979147	-15.098590	 4.898592	 3.004813	-9.310344	 5.224449	 0.395017	 2.014677
-0.028947	 0.294073	 1.043586	 2.558449	 26.900910	-5.333642	-1.065803	-75.307330	 179.271400	 5.736678	-68.012890	 5.708755	-6.308478	 81.959510	 7.639293	-2.385833	 28.452750	 0.000004	 39.738510	-74.354670	-143.846400	-16.421920	-70.750010	-10.660070	 42.699290	 79.958290	-31.051470	 2.384659	 28.388700	-0.000001	 1.946727	 15.756230	-0.803379	 0.264210	 24.467600	-2.221675	-8.162726	-6.117929	 3.072249	-93.969700	 75.640630	 160.716300	 12.609110	 11.319770	-40.436730	-1.665536	 11.469940	-42.664410	-27.191240	-21.409530	-23.224290	-2.027600	 6.559038	 9.033609	-5.188889	 0.308190	 3.541030	-5.234859	 0.342567	 0.430617	-1.501894	-9.013012	-2.383667	-7.420265	-0.163908	-2.511444	 94.879550	 67.700250	-163.364500	-7.952903	 8.133604	 48.164470	-6.938061	 0.502042	 35.132650	 7.219304	-18.536310	 17.823420	 1.803333	 3.979147	-15.098590	 4.898592	 3.004813	-9.310344	 5.224449	 0.395017	 2.014677
